<svg width="200" height="42" viewBox="0 0 200 42" fill="none" xmlns="http://www.w3.org/2000/svg">
<path d="M54.771 13.8154H62.421V17.43H54.771V13.8154ZM55.1026 23.1H50.4131V6.5625H63.4157V10.1771H55.1026V23.1Z" fill="#2F302C"/>
<path d="M74.68 23.4307C72.2326 23.4307 70.3221 22.7614 68.9484 21.4226C67.5747 20.0839 66.8879 18.186 66.8879 15.729V6.5625H71.5773V15.5872C71.5773 17.0047 71.8536 18.0206 72.4063 18.6349C72.9747 19.2491 73.7484 19.5562 74.7273 19.5562C75.7063 19.5562 76.4721 19.2491 77.0247 18.6349C77.5773 18.0206 77.8536 17.0047 77.8536 15.5872V6.5625H82.4721V15.729C82.4721 18.186 81.7852 20.0839 80.4115 21.4226C79.0379 22.7614 77.1273 23.4307 74.68 23.4307Z" fill="#2F302C"/>
<path d="M87.07 23.1V6.5625H94.6489C96.1647 6.5625 97.4673 6.80662 98.5568 7.29487C99.6621 7.78312 100.515 8.49187 101.115 9.42112C101.715 10.3346 102.015 11.4214 102.015 12.6814C102.015 13.9256 101.715 15.0045 101.115 15.918C100.515 16.8157 99.6621 17.5087 98.5568 17.997C97.4673 18.4695 96.1647 18.7057 94.6489 18.7057H89.6752L91.7594 16.7449V23.1H87.07ZM97.3252 23.1L93.2042 17.0756H98.2015L102.346 23.1H97.3252ZM91.7594 17.241L89.6752 15.0911H94.3647C95.3436 15.0911 96.07 14.8785 96.5436 14.4532C97.0331 14.028 97.2779 13.4374 97.2779 12.6814C97.2779 11.9096 97.0331 11.3111 96.5436 10.8859C96.07 10.4606 95.3436 10.248 94.3647 10.248H89.6752L91.7594 8.09812V17.241Z" fill="#2F302C"/>
<path d="M106.023 23.1V6.5625H109.883L119.026 17.5717H117.202V6.5625H121.797V23.1H117.936L108.794 12.0907H110.618V23.1H106.023Z" fill="#2F302C"/>
<path d="M126.525 23.1V6.5625H131.215V23.1H126.525Z" fill="#2F302C"/>
<path d="M139.501 23.1V10.2716H134.409V6.5625H149.259V10.2716H144.191V23.1H139.501Z" fill="#2F302C"/>
<path d="M159.823 23.4307C157.375 23.4307 155.465 22.7614 154.091 21.4226C152.718 20.0839 152.031 18.186 152.031 15.729V6.5625H156.72V15.5872C156.72 17.0047 156.997 18.0206 157.549 18.6349C158.118 19.2491 158.891 19.5562 159.87 19.5562C160.849 19.5562 161.615 19.2491 162.168 18.6349C162.72 18.0206 162.997 17.0047 162.997 15.5872V6.5625H167.615V15.729C167.615 18.186 166.928 20.0839 165.554 21.4226C164.181 22.7614 162.27 23.4307 159.823 23.4307Z" fill="#2F302C"/>
<path d="M172.213 23.1V6.5625H179.792C181.308 6.5625 182.61 6.80662 183.7 7.29487C184.805 7.78312 185.658 8.49187 186.258 9.42112C186.858 10.3346 187.158 11.4214 187.158 12.6814C187.158 13.9256 186.858 15.0045 186.258 15.918C185.658 16.8157 184.805 17.5087 183.7 17.997C182.61 18.4695 181.308 18.7057 179.792 18.7057H174.818L176.902 16.7449V23.1H172.213ZM182.468 23.1L178.347 17.0756H183.344L187.489 23.1H182.468ZM176.902 17.241L174.818 15.0911H179.508C180.487 15.0911 181.213 14.8785 181.687 14.4532C182.176 14.028 182.421 13.4374 182.421 12.6814C182.421 11.9096 182.176 11.3111 181.687 10.8859C181.213 10.4606 180.487 10.248 179.508 10.248H174.818L176.902 8.09812V17.241Z" fill="#2F302C"/>
<path d="M51.3791 39.7162V37.5349L51.608 38.1649L49.208 34.2037H50.3054L52.2317 37.3931H51.6159L53.558 34.2037H54.5685L52.1685 38.1649L52.4054 37.5349V39.7162H51.3791Z" fill="#2F302C"/>
<path d="M59.0122 39.795C58.5806 39.795 58.1832 39.7241 57.8201 39.5824C57.4569 39.4406 57.1411 39.2437 56.8727 38.9917C56.6043 38.7345 56.3964 38.4352 56.249 38.094C56.1016 37.7475 56.0279 37.3695 56.0279 36.96C56.0279 36.5505 56.1016 36.1751 56.249 35.8339C56.3964 35.4874 56.6043 35.1881 56.8727 34.9361C57.1411 34.6789 57.4569 34.4794 57.8201 34.3376C58.1832 34.1959 58.5779 34.125 59.0043 34.125C59.4358 34.125 59.8306 34.1959 60.1885 34.3376C60.5516 34.4794 60.8674 34.6789 61.1358 34.9361C61.4043 35.1881 61.6122 35.4874 61.7595 35.8339C61.9069 36.1751 61.9806 36.5505 61.9806 36.96C61.9806 37.3695 61.9069 37.7475 61.7595 38.094C61.6122 38.4405 61.4043 38.7397 61.1358 38.9917C60.8674 39.2437 60.5516 39.4406 60.1885 39.5824C59.8306 39.7241 59.4385 39.795 59.0122 39.795ZM59.0043 38.8972C59.2832 38.8972 59.5411 38.85 59.778 38.7555C60.0148 38.661 60.2201 38.5271 60.3937 38.3539C60.5674 38.1754 60.7016 37.9706 60.7964 37.7396C60.8964 37.5034 60.9464 37.2435 60.9464 36.96C60.9464 36.6765 60.8964 36.4192 60.7964 36.1882C60.7016 35.952 60.5674 35.7472 60.3937 35.574C60.2201 35.3955 60.0148 35.259 59.778 35.1645C59.5411 35.07 59.2832 35.0227 59.0043 35.0227C58.7253 35.0227 58.4674 35.07 58.2306 35.1645C57.999 35.259 57.7937 35.3955 57.6148 35.574C57.4411 35.7472 57.3043 35.952 57.2043 36.1882C57.1095 36.4192 57.0622 36.6765 57.0622 36.96C57.0622 37.2382 57.1095 37.4955 57.2043 37.7317C57.3043 37.968 57.4411 38.1754 57.6148 38.3539C57.7885 38.5271 57.9937 38.661 58.2306 38.7555C58.4674 38.85 58.7253 38.8972 59.0043 38.8972Z" fill="#2F302C"/>
<path d="M66.8658 39.795C66.1079 39.795 65.5132 39.5824 65.0816 39.1571C64.6553 38.7319 64.4421 38.1176 64.4421 37.3144V34.2037H65.4685V37.275C65.4685 37.842 65.5895 38.2541 65.8316 38.5114C66.079 38.7686 66.4263 38.8972 66.8737 38.8972C67.3211 38.8972 67.6658 38.7686 67.9079 38.5114C68.15 38.2541 68.2711 37.842 68.2711 37.275V34.2037H69.2816V37.3144C69.2816 38.1176 69.0658 38.7319 68.6342 39.1571C68.2079 39.5824 67.6185 39.795 66.8658 39.795Z" fill="#2F302C"/>
<path d="M72.14 39.7162V34.2037H74.4137C74.9032 34.2037 75.3216 34.2825 75.6689 34.44C76.0216 34.5975 76.2926 34.8232 76.4821 35.1172C76.6716 35.4112 76.7663 35.7604 76.7663 36.1646C76.7663 36.5689 76.6716 36.918 76.4821 37.212C76.2926 37.5007 76.0216 37.7239 75.6689 37.8814C75.3216 38.0336 74.9032 38.1097 74.4137 38.1097H72.7084L73.1663 37.6451V39.7162H72.14ZM75.7558 39.7162L74.3584 37.716H75.4558L76.8611 39.7162H75.7558ZM73.1663 37.7554L72.7084 37.2671H74.3663C74.8189 37.2671 75.1584 37.17 75.3847 36.9757C75.6163 36.7815 75.7321 36.5111 75.7321 36.1646C75.7321 35.8129 75.6163 35.5425 75.3847 35.3535C75.1584 35.1645 74.8189 35.07 74.3663 35.07H72.7084L73.1663 34.566V37.7554Z" fill="#2F302C"/>
<path d="M83.878 36.7395H86.6333V37.6057H83.878V36.7395ZM83.9648 39.7162H82.9385V34.2037H86.9727V35.0621H83.9648V39.7162Z" fill="#2F302C"/>
<path d="M91.7626 39.795C91.0047 39.795 90.41 39.5824 89.9784 39.1571C89.5521 38.7319 89.3389 38.1176 89.3389 37.3144V34.2037H90.3652V37.275C90.3652 37.842 90.4863 38.2541 90.7284 38.5114C90.9758 38.7686 91.3231 38.8972 91.7705 38.8972C92.2179 38.8972 92.5626 38.7686 92.8047 38.5114C93.0468 38.2541 93.1679 37.842 93.1679 37.275V34.2037H94.1784V37.3144C94.1784 38.1176 93.9626 38.7319 93.531 39.1571C93.1047 39.5824 92.5152 39.795 91.7626 39.795Z" fill="#2F302C"/>
<path d="M98.0576 39.7162V35.07H96.226V34.2037H100.916V35.07H99.0839V39.7162H98.0576Z" fill="#2F302C"/>
<path d="M105.383 39.795C104.625 39.795 104.03 39.5824 103.599 39.1571C103.172 38.7319 102.959 38.1176 102.959 37.3144V34.2037H103.986V37.275C103.986 37.842 104.107 38.2541 104.349 38.5114C104.596 38.7686 104.943 38.8972 105.391 38.8972C105.838 38.8972 106.183 38.7686 106.425 38.5114C106.667 38.2541 106.788 37.842 106.788 37.275V34.2037H107.799V37.3144C107.799 38.1176 107.583 38.7319 107.151 39.1571C106.725 39.5824 106.136 39.795 105.383 39.795Z" fill="#2F302C"/>
<path d="M110.657 39.7162V34.2037H112.931C113.42 34.2037 113.839 34.2825 114.186 34.44C114.539 34.5975 114.81 34.8232 114.999 35.1172C115.189 35.4112 115.283 35.7604 115.283 36.1646C115.283 36.5689 115.189 36.918 114.999 37.212C114.81 37.5007 114.539 37.7239 114.186 37.8814C113.839 38.0336 113.42 38.1097 112.931 38.1097H111.225L111.683 37.6451V39.7162H110.657ZM114.273 39.7162L112.875 37.716H113.973L115.378 39.7162H114.273ZM111.683 37.7554L111.225 37.2671H112.883C113.336 37.2671 113.675 37.17 113.902 36.9757C114.133 36.7815 114.249 36.5111 114.249 36.1646C114.249 35.8129 114.133 35.5425 113.902 35.3535C113.675 35.1645 113.336 35.07 112.883 35.07H111.225L111.683 34.566V37.7554Z" fill="#2F302C"/>
<path d="M118.8 36.4954H121.547V37.338H118.8V36.4954ZM118.879 38.8579H121.997V39.7162H117.853V34.2037H121.887V35.0621H118.879V38.8579Z" fill="#2F302C"/>
<path d="M128.165 39.7162V34.2037H129.192V39.7162H128.165Z" fill="#2F302C"/>
<path d="M132.108 39.7162V34.2037H132.952L136.418 38.4484H136V34.2037H137.018V39.7162H136.173L132.708 35.4716H133.126V39.7162H132.108Z" fill="#2F302C"/>
<path d="M141.041 39.7162V35.07H139.209V34.2037H143.899V35.07H142.067V39.7162H141.041Z" fill="#2F302C"/>
<path d="M147.038 36.4954H149.785V37.338H147.038V36.4954ZM147.117 38.8579H150.235V39.7162H146.09V34.2037H150.124V35.0621H147.117V38.8579Z" fill="#2F302C"/>
<path d="M152.8 39.7162V34.2037H155.074C155.563 34.2037 155.982 34.2825 156.329 34.44C156.682 34.5975 156.953 34.8232 157.142 35.1172C157.332 35.4112 157.426 35.7604 157.426 36.1646C157.426 36.5689 157.332 36.918 157.142 37.212C156.953 37.5007 156.682 37.7239 156.329 37.8814C155.982 38.0336 155.563 38.1097 155.074 38.1097H153.369L153.826 37.6451V39.7162H152.8ZM156.416 39.7162L155.019 37.716H156.116L157.521 39.7162H156.416ZM153.826 37.7554L153.369 37.2671H155.026C155.479 37.2671 155.819 37.17 156.045 36.9757C156.276 36.7815 156.392 36.5111 156.392 36.1646C156.392 35.8129 156.276 35.5425 156.045 35.3535C155.819 35.1645 155.479 35.07 155.026 35.07H153.369L153.826 34.566V37.7554Z" fill="#2F302C"/>
<path d="M159.996 39.7162V34.2037H161.022V39.7162H159.996Z" fill="#2F302C"/>
<path d="M166.527 39.795C166.096 39.795 165.698 39.7241 165.335 39.5824C164.972 39.4406 164.656 39.2437 164.388 38.9917C164.119 38.7345 163.912 38.4352 163.764 38.094C163.617 37.7475 163.543 37.3695 163.543 36.96C163.543 36.5505 163.617 36.1751 163.764 35.8339C163.912 35.4874 164.119 35.1881 164.388 34.9361C164.656 34.6789 164.972 34.4794 165.335 34.3376C165.698 34.1959 166.093 34.125 166.519 34.125C166.951 34.125 167.346 34.1959 167.704 34.3376C168.067 34.4794 168.383 34.6789 168.651 34.9361C168.919 35.1881 169.127 35.4874 169.275 35.8339C169.422 36.1751 169.496 36.5505 169.496 36.96C169.496 37.3695 169.422 37.7475 169.275 38.094C169.127 38.4405 168.919 38.7397 168.651 38.9917C168.383 39.2437 168.067 39.4406 167.704 39.5824C167.346 39.7241 166.954 39.795 166.527 39.795ZM166.519 38.8972C166.798 38.8972 167.056 38.85 167.293 38.7555C167.53 38.661 167.735 38.5271 167.909 38.3539C168.083 38.1754 168.217 37.9706 168.312 37.7396C168.412 37.5034 168.462 37.2435 168.462 36.96C168.462 36.6765 168.412 36.4192 168.312 36.1882C168.217 35.952 168.083 35.7472 167.909 35.574C167.735 35.3955 167.53 35.259 167.293 35.1645C167.056 35.07 166.798 35.0227 166.519 35.0227C166.241 35.0227 165.983 35.07 165.746 35.1645C165.514 35.259 165.309 35.3955 165.13 35.574C164.956 35.7472 164.819 35.952 164.719 36.1882C164.625 36.4192 164.577 36.6765 164.577 36.96C164.577 37.2382 164.625 37.4955 164.719 37.7317C164.819 37.968 164.956 38.1754 165.13 38.3539C165.304 38.5271 165.509 38.661 165.746 38.7555C165.983 38.85 166.241 38.8972 166.519 38.8972Z" fill="#2F302C"/>
<path d="M172.005 39.7162V34.2037H174.278C174.768 34.2037 175.186 34.2825 175.534 34.44C175.886 34.5975 176.157 34.8232 176.347 35.1172C176.536 35.4112 176.631 35.7604 176.631 36.1646C176.631 36.5689 176.536 36.918 176.347 37.212C176.157 37.5007 175.886 37.7239 175.534 37.8814C175.186 38.0336 174.768 38.1097 174.278 38.1097H172.573L173.031 37.6451V39.7162H172.005ZM175.621 39.7162L174.223 37.716H175.321L176.726 39.7162H175.621ZM173.031 37.7554L172.573 37.2671H174.231C174.684 37.2671 175.023 37.17 175.249 36.9757C175.481 36.7815 175.597 36.5111 175.597 36.1646C175.597 35.8129 175.481 35.5425 175.249 35.3535C175.023 35.1645 174.684 35.07 174.231 35.07H172.573L173.031 34.566V37.7554Z" fill="#2F302C"/>
<path d="M33.1579 5.25056C33.1579 22.5025 19.1373 36.488 1.8421 36.488C1.22371 36.488 0.609518 36.4701 0 36.4349V40.1155C0.610031 40.147 1.22419 40.163 1.8421 40.163C21.1721 40.163 36.8421 24.5322 36.8421 5.25056C36.8421 5.25039 36.8421 5.25073 36.8421 5.25056H33.1579C33.1579 5.25073 33.1579 5.25039 33.1579 5.25056Z" fill="#2F302C"/>
<path d="M31.3158 5.25005C31.3158 5.24988 31.3158 5.25022 31.3158 5.25005C31.3158 21.4872 18.12 34.6505 1.8421 34.6505C1.22343 34.6505 0.60921 34.6315 0 34.594V30.9109C0.608447 30.9538 1.22272 30.9755 1.8421 30.9755C16.0852 30.9755 27.6316 19.4581 27.6316 5.25056C27.6316 5.25039 27.6316 5.25073 27.6316 5.25056L31.3158 5.25005Z" fill="#2F302C"/>
<path d="M0 29.0684C0.607968 29.1145 1.22228 29.138 1.8421 29.138C15.0679 29.138 25.7895 18.4432 25.7895 5.25056C25.7895 5.25039 25.7895 5.25073 25.7895 5.25056L22.1053 5.25005C22.1053 5.24988 22.1053 5.25022 22.1053 5.25005C22.1053 16.4131 13.0331 25.463 1.8421 25.463C1.22114 25.463 0.606717 25.4352 0 25.3806V29.0684Z" fill="#2F302C"/>
<path d="M0 23.5348C0.605877 23.5948 1.22039 23.6255 1.8421 23.6255C12.0158 23.6255 20.2631 15.3988 20.2631 5.25056C20.2631 5.25039 20.2631 5.25073 20.2631 5.25056L16.5789 5.25005C16.5789 5.24988 16.5789 5.25022 16.5789 5.25005C16.5789 13.3686 9.98103 19.9505 1.8421 19.9505C1.21825 19.9505 0.60346 19.9119 0 19.8368V23.5348Z" fill="#2F302C"/>
<path d="M0 17.9828C0.601634 18.0686 1.21667 18.113 1.8421 18.113C8.96366 18.113 14.7368 12.3543 14.7368 5.25056C14.7368 5.25039 14.7368 5.25073 14.7368 5.25056L11.0526 5.25005C11.0526 5.24988 11.0526 5.25022 11.0526 5.25005C11.0526 10.3242 6.92893 14.4381 1.8421 14.4381C1.21124 14.4381 0.5952 14.3748 0 14.2543V17.9828Z" fill="#2F302C"/>
<path d="M0 12.369C0.588771 12.5202 1.20602 12.6006 1.8421 12.6006C5.91156 12.6006 9.21052 9.30985 9.21052 5.25056C9.21052 5.25039 9.21052 5.25073 9.21052 5.25056L0 5.25005V12.369Z" fill="#2F302C"/>
<path d="M36.8421 16.7576C36.4668 17.8942 36.0373 19.0063 35.5569 20.0908C35.9896 20.1417 36.4182 20.2063 36.8421 20.2839V16.7576Z" fill="#2F302C"/>
<path d="M36.8421 22.1557C36.1478 22.0151 35.4393 21.9135 34.7191 21.8532C34.0837 23.1026 33.3789 24.311 32.6096 25.4731C32.7915 25.4665 32.9743 25.4632 33.1579 25.4632C34.43 25.4632 35.6646 25.6239 36.8421 25.9263V22.1557Z" fill="#2F302C"/>
<path d="M18.535 42H14.8277C14.7676 41.3958 14.7368 40.7831 14.7368 40.1631C14.7368 40.0031 14.7389 39.8436 14.743 39.6845C16.0592 39.1936 17.3398 38.6298 18.5798 37.9979C18.4752 38.7045 18.421 39.4275 18.421 40.1631C18.421 40.7852 18.4598 41.3983 18.535 42Z" fill="#2F302C"/>
<path d="M36.8421 27.8333C35.6747 27.4867 34.4381 27.3007 33.1579 27.3007C32.495 27.3007 31.8438 27.3505 31.2079 27.4468C28.3481 31.2056 24.7796 34.3985 20.701 36.8275C20.4154 37.8913 20.2631 39.0095 20.2631 40.1631C20.2631 40.7868 20.3076 41.4001 20.3936 42H24.1315C24.0107 41.4065 23.9474 40.7922 23.9474 40.1631C23.9474 35.089 28.0711 30.9757 33.1579 30.9757C34.4678 30.9757 35.7139 31.2484 36.8421 31.7401V27.8333Z" fill="#2F302C"/>
<path d="M36.8421 33.7965C35.7583 33.1711 34.5 32.8131 33.1579 32.8131C29.0884 32.8131 25.7895 36.1039 25.7895 40.1631C25.7895 40.7974 25.87 41.4129 26.0214 42H36.8421V33.7965Z" fill="#2F302C"/>
<path d="M12.9773 42H9.28027C9.26156 41.7545 9.24656 41.508 9.23534 41.2605C10.4793 41.0077 11.7004 40.6924 12.8953 40.318C12.8996 40.8845 12.9272 41.4455 12.9773 42Z" fill="#2F302C"/>
<path d="M7.43315 42C7.42336 41.8617 7.41467 41.723 7.40709 41.5841C6.2022 41.7662 4.97814 41.8901 3.73791 41.9528C3.73886 41.9686 3.73982 41.9843 3.74079 42H7.43315Z" fill="#2F302C"/>
<path d="M1.62392 42C1.07974 41.9969 0.53835 41.9819 0 41.9555V42H1.62392Z" fill="#2F302C"/>
<g clip-path="url(#clip0_193_1241)">
<path d="M190.98 3.0625H192.516V6.89062H193.283V3.0625H194.818V2.29688H190.98V3.0625Z" fill="black"/>
<path d="M198.848 2.29688L197.697 4.2875L196.545 2.29688H195.586V6.89062H196.353V3.48359L197.697 5.81875L199.04 3.48359V6.89062H199.807V2.29688H198.848Z" fill="black"/>
</g>
<defs>
<clipPath id="clip0_193_1241">
<rect width="9.21053" height="9.18749" fill="white" transform="translate(190.789)"/>
</clipPath>
</defs>
</svg>
